<svg width="458.4299682617187px" height="384.81995849609376px" xmlns="http://www.w3.org/2000/svg" viewBox="20.785015869140636 -117.40997924804688 458.4299682617187 384.81995849609376" style="background: rgba(0, 0, 0, 0);" preserveAspectRatio="xMidYMid"><defs><filter id="editing-hole" x="-100%" y="-100%" width="300%" height="300%"><feFlood flood-color="#000000" result="black"></feFlood><feMorphology operator="dilate" radius="2" in="SourceGraphic" result="erode"></feMorphology><feGaussianBlur in="erode" stdDeviation="4" result="blur"></feGaussianBlur><feOffset in="blur" dx="2" dy="2" result="offset"></feOffset><feComposite operator="atop" in="offset" in2="black" result="merge"></feComposite><feComposite operator="in" in="merge" in2="SourceGraphic" result="inner-shadow"></feComposite></filter></defs><g filter="url(#editing-hole)"><g transform="translate(89.69500732421875, 153.22000122070312)"><path d="M18.75-24.80L18.75-77.44L18.75-77.44Q18.75-82.62 20.21-87.11L20.21-87.11L20.21-87.11Q21.68-91.60 24.17-94.97L24.17-94.97L24.17-94.97Q26.66-98.34 30.08-100.29L30.08-100.29L30.08-100.29Q33.50-102.25 37.30-102.25L37.30-102.25L82.42-102.25L82.42-155.27L105.66-155.27L105.66-16.70L124.22-16.70L124.22-16.70Q123.83-13.28 122.31-10.21L122.31-10.21L122.31-10.21Q120.80-7.13 118.51-4.88L118.51-4.88L118.51-4.88Q116.21-2.64 113.28-1.32L113.28-1.32L113.28-1.32Q110.35 0 107.13 0L107.13 0L82.42 0L82.42-10.64L82.42-10.64Q79.79-5.66 75.68-2.83L75.68-2.83L75.68-2.83Q71.58 0 66.99 0L66.99 0L37.30 0L37.30 0Q33.50 0 30.08-1.95L30.08-1.95L30.08-1.95Q26.66-3.91 24.17-7.28L24.17-7.28L24.17-7.28Q21.68-10.64 20.21-15.14L20.21-15.14L20.21-15.14Q18.75-19.63 18.75-24.80L18.75-24.80ZM41.99-16.70L82.42-16.70L82.42-85.55L41.99-85.55L41.99-16.70ZM143.26-24.80L143.26-77.44L143.26-77.44Q143.26-82.62 144.73-87.11L144.73-87.11L144.73-87.11Q146.19-91.60 148.68-94.97L148.68-94.97L148.68-94.97Q151.17-98.34 154.59-100.29L154.59-100.29L154.59-100.29Q158.01-102.25 161.82-102.25L161.82-102.25L213.18-102.25L213.18-102.25Q216.99-102.25 220.36-100.29L220.36-100.29L220.36-100.29Q223.73-98.34 226.27-94.97L226.27-94.97L226.27-94.97Q228.81-91.60 230.27-87.11L230.27-87.11L230.27-87.11Q231.74-82.62 231.74-77.44L231.74-77.44L231.74-59.28L208.40-59.28L208.40-85.55L166.50-85.55L166.50-16.70L234.86-16.70L234.86-16.70Q234.47-13.28 232.96-10.25L232.96-10.25L232.96-10.25Q231.45-7.23 229.15-4.98L229.15-4.98L229.15-4.98Q226.86-2.73 223.93-1.42L223.93-1.42L223.93-1.42Q221.00-0.10 217.77 0L217.77 0L161.82 0L161.82 0Q158.01 0.10 154.59-1.86L154.59-1.86L154.59-1.86Q151.17-3.81 148.68-7.18L148.68-7.18L148.68-7.18Q146.19-10.55 144.73-15.09L144.73-15.09L144.73-15.09Q143.26-19.63 143.26-24.80L143.26-24.80ZM268.95-15.23L268.95-15.23L268.95-15.23Q268.95-18.65 270.21-21.63L270.21-21.63L270.21-21.63Q271.48-24.61 273.73-26.86L273.73-26.86L273.73-26.86Q275.98-29.10 278.96-30.42L278.96-30.42L278.96-30.42Q281.93-31.74 285.35-31.74L285.35-31.74L285.35-31.74Q288.77-31.74 291.75-30.42L291.75-30.42L291.75-30.42Q294.73-29.10 296.97-26.86L296.97-26.86L296.97-26.86Q299.22-24.61 300.54-21.63L300.54-21.63L300.54-21.63Q301.86-18.65 301.86-15.23L301.86-15.23L301.86-15.23Q301.86-11.82 300.54-8.84L300.54-8.84L300.54-8.84Q299.22-5.86 296.97-3.61L296.97-3.61L296.97-3.61Q294.73-1.37 291.70-0.10L291.70-0.10L291.70-0.10Q288.67 1.17 285.35 1.17L285.35 1.17L285.35 1.17Q281.93 1.17 278.96-0.10L278.96-0.10L278.96-0.10Q275.98-1.37 273.73-3.61L273.73-3.61L273.73-3.61Q271.48-5.86 270.21-8.84L270.21-8.84L270.21-8.84Q268.95-11.82 268.95-15.23Z" fill="#eb8686"></path></g></g><style>text {
  font-size: 64px;
  font-family: Arial Black;
  dominant-baseline: central;
  text-anchor: middle;
}</style></svg>